<svg width="289" height="286" viewBox="0 0 289 286" fill="none" xmlns="http://www.w3.org/2000/svg">
<g clip-path="url(#clip0)">
<path d="M288 285.5H288.5V285V5C288.5 2.51472 286.485 0.5 284 0.5H5C2.51472 0.5 0.5 2.51472 0.5 5V285V285.5H1H288Z" fill="#006450" stroke="#C0C0C0"/>
<path opacity="0.08" d="M393.797 280.1C386.297 258.601 388.297 234.913 392.297 212.518C396.297 190.124 402.097 167.729 401.797 144.936C401.297 107.711 383.397 71.0835 354.097 47.8926C324.797 24.7017 284.797 15.5448 248.397 24.005C225.397 29.3797 203.697 41.224 180.097 42.2193C155.797 43.2146 132.797 32.5647 108.897 28.1853C52.1973 17.834 -8.60275 46.2006 -40.3027 94.1749C-72.0027 142.05 -75.0027 206.347 -51.8027 258.9C-28.6027 311.453 18.9973 351.664 73.4973 370.376C127.997 388.988 188.697 386.898 243.397 368.684C270.197 359.825 295.697 347.185 322.897 339.521C350.097 331.857 380.097 329.468 405.997 340.815L443.497 321.107C420.597 320.411 401.297 301.599 393.797 280.1Z" fill="url(#paint0_linear)"/>
</g>
<defs>
<linearGradient id="paint0_linear" x1="-67.0714" y1="202.122" x2="443.506" y2="202.122" gradientUnits="userSpaceOnUse">
<stop stop-color="#D1D5DE"/>
<stop offset="1" stop-color="#DBDBDB"/>
</linearGradient>
<clipPath id="clip0">
<rect width="289" height="286" fill="white"/>
</clipPath>
</defs>
</svg>
