<svg width="691" height="208" viewBox="0 0 691 208" fill="none" xmlns="http://www.w3.org/2000/svg">
<path d="M691 208.5H691.5V208V4C691.5 1.51472 689.485 -0.5 687 -0.5H4C1.51472 -0.5 -0.5 1.51472 -0.5 4V208V208.5H0H691Z" fill="#006450" stroke="#C0C0C0"/>
<path opacity="0.08" d="M796.797 291.63C789.297 269.166 791.297 244.414 795.297 221.014C799.297 197.614 805.097 174.214 804.797 150.398C804.297 111.502 786.397 73.2297 757.097 48.9977C727.797 24.7657 687.797 15.1977 651.397 24.0377C628.397 29.6537 606.697 42.0297 583.097 43.0697C558.797 44.1097 535.797 32.9817 511.897 28.4057C455.197 17.5897 394.397 47.2297 362.697 97.3577C330.997 147.382 327.997 214.566 351.197 269.478C374.397 324.39 421.997 366.406 476.497 385.958C530.997 405.406 591.697 403.222 646.397 384.19C673.197 374.934 698.697 361.726 725.897 353.718C753.097 345.71 783.097 343.214 808.997 355.07L846.497 334.478C823.597 333.75 804.297 314.094 796.797 291.63Z" fill="url(#paint0_linear)"/>
<defs>
<linearGradient id="paint0_linear" x1="335.929" y1="210.151" x2="846.506" y2="210.151" gradientUnits="userSpaceOnUse">
<stop stop-color="#D1D5DE"/>
<stop offset="1" stop-color="#DBDBDB"/>
</linearGradient>
</defs>
</svg>
