<svg width="160" height="160" viewBox="0 0 160 160" fill="none" xmlns="http://www.w3.org/2000/svg">
<rect width="160" height="160" fill="white"/>
<path fill-rule="evenodd" clip-rule="evenodd" d="M30.0402 107.841C31.8511 104.611 35.2589 102.4 39.2163 102.4C45.0517 102.4 49.7829 107.147 49.7829 113.002C49.7829 113.088 49.7712 113.17 49.7595 113.253C49.7492 113.326 49.7389 113.398 49.7365 113.473C52.8322 114.556 55.0662 117.48 55.0662 120.954C55.0662 125.344 51.5165 128.906 47.1413 128.906H20.7248C16.3495 128.906 12.7998 125.344 12.7998 120.954C12.7998 116.564 16.3495 113.002 20.7248 113.002C20.82 113.002 20.9117 113.015 21.003 113.027C21.0675 113.036 21.1317 113.045 21.1969 113.049C22.2752 109.943 25.1877 107.701 28.6497 107.701C29.1269 107.701 29.5887 107.761 30.0402 107.841ZM46.9301 112.734C46.8786 108.411 43.3529 104.907 39.0243 104.907C36.2038 104.907 33.5788 106.471 32.1686 108.983L31.2499 110.621L29.4047 110.289C29.0238 110.222 28.7407 110.191 28.4833 110.191C26.265 110.191 24.2783 111.62 23.5371 113.751L22.8783 115.647L20.8761 115.515C20.7475 115.507 20.6187 115.492 20.4952 115.474C17.6284 115.52 15.3071 117.873 15.3071 120.757C15.3071 123.672 17.6721 126.041 20.5776 126.041H46.9301C49.8381 126.041 52.2006 123.672 52.2006 120.757C52.2006 118.533 50.7749 116.539 48.6544 115.799L46.8221 115.159L46.8889 113.219C46.894 113.054 46.9095 112.894 46.9301 112.734Z" fill="#F0F0F0"/>
<path fill-rule="evenodd" clip-rule="evenodd" d="M50.3964 17.8911C51.8246 15.3434 54.5122 13.6 57.6331 13.6C62.2352 13.6 65.9665 17.344 65.9665 21.9616C65.9665 22.0289 65.9573 22.0939 65.948 22.1591C65.9399 22.2164 65.9318 22.2739 65.9299 22.3331C68.3713 23.1864 70.1331 25.4932 70.1331 28.2328C70.1331 31.695 67.3337 34.504 63.8831 34.504H43.0498C39.5993 34.504 36.7998 31.695 36.7998 28.2328C36.7998 24.7706 39.5993 21.9616 43.0498 21.9616C43.1249 21.9616 43.1972 21.9714 43.2692 21.9812C43.3201 21.9881 43.3708 21.995 43.4221 21.9984C44.2725 19.5487 46.5695 17.7808 49.2998 17.7808C49.6762 17.7808 50.0404 17.8278 50.3964 17.8911ZM63.7167 21.7501C63.6761 18.3403 60.8955 15.5774 57.4818 15.5774C55.2574 15.5774 53.1872 16.8103 52.075 18.7919L51.3505 20.0839L49.8953 19.8214C49.5949 19.7685 49.3716 19.7441 49.1686 19.7441C47.4192 19.7441 45.8523 20.8712 45.2678 22.5517L44.7483 24.0471L43.1692 23.9433C43.0678 23.9372 42.9663 23.925 42.8688 23.9107C40.6079 23.9473 38.7772 25.8028 38.7772 28.0774C38.7772 30.3764 40.6424 32.2441 42.9338 32.2441H63.7167C66.0101 32.2441 67.8733 30.3764 67.8733 28.0774C67.8733 26.3236 66.7489 24.751 65.0765 24.1671L63.6315 23.6626L63.6842 22.1326C63.6882 22.0024 63.7004 21.8763 63.7167 21.7501Z" fill="#F0F0F0"/>
<path fill-rule="evenodd" clip-rule="evenodd" d="M124.796 133.091C126.225 130.543 128.912 128.8 132.033 128.8C136.635 128.8 140.366 132.544 140.366 137.162C140.366 137.229 140.357 137.294 140.348 137.359C140.34 137.416 140.332 137.474 140.33 137.533C142.771 138.386 144.533 140.693 144.533 143.433C144.533 146.895 141.734 149.704 138.283 149.704H117.45C113.999 149.704 111.2 146.895 111.2 143.433C111.2 139.971 113.999 137.162 117.45 137.162C117.525 137.162 117.597 137.171 117.669 137.181C117.72 137.188 117.771 137.195 117.822 137.198C118.672 134.749 120.969 132.981 123.7 132.981C124.076 132.981 124.44 133.028 124.796 133.091ZM138.117 136.95C138.076 133.54 135.295 130.777 131.882 130.777C129.657 130.777 127.587 132.01 126.475 133.992L125.75 135.284L124.295 135.021C123.995 134.968 123.772 134.944 123.569 134.944C121.819 134.944 120.252 136.071 119.668 137.752L119.148 139.247L117.569 139.143C117.468 139.137 117.366 139.125 117.269 139.111C115.008 139.147 113.177 141.003 113.177 143.277C113.177 145.576 115.042 147.444 117.334 147.444H138.117C140.41 147.444 142.273 145.576 142.273 143.277C142.273 141.524 141.149 139.951 139.476 139.367L138.031 138.863L138.084 137.333C138.088 137.202 138.1 137.076 138.117 136.95Z" fill="#F0F0F0"/>
<path fill-rule="evenodd" clip-rule="evenodd" d="M77.1846 35.23C78.7437 33.6852 81.2563 33.6852 82.8154 35.23L125.132 77.1586C126.712 78.7236 126.712 81.2764 125.132 82.8414L82.8154 124.77C81.2563 126.315 78.7437 126.315 77.1846 124.77L34.8678 82.8414C33.2882 81.2764 33.2882 78.7236 34.8678 77.1586L77.1846 35.23Z" fill="#B2DEF0"/>
<g filter="url(#filter0_d)">
<path fill-rule="evenodd" clip-rule="evenodd" d="M77.1846 45.2533C78.7437 43.7085 81.2563 43.7085 82.8154 45.2533L115.016 77.1586C116.596 78.7236 116.596 81.2764 115.016 82.8415L82.8154 114.747C81.2563 116.292 78.7437 116.292 77.1846 114.747L44.9838 82.8415C43.4043 81.2764 43.4043 78.7236 44.9838 77.1586L77.1846 45.2533Z" fill="white"/>
<path d="M77.8885 45.9636C79.0578 44.8051 80.9422 44.8051 82.1115 45.9636L114.312 77.869C115.497 79.0427 115.497 80.9573 114.312 82.1311L82.1115 114.036C80.9422 115.195 79.0578 115.195 77.8885 114.036L45.6877 82.1311C44.503 80.9573 44.503 79.0427 45.6877 77.869L77.8885 45.9636Z" stroke="#026CB6" stroke-width="2"/>
</g>
<path fill-rule="evenodd" clip-rule="evenodd" d="M79.2092 88.3571C81.1682 88.4049 82.5579 86.8806 82.6058 84.9216L83.0949 64.9041C83.1428 62.9451 81.8299 61.324 79.8709 61.2761C77.9119 61.2282 76.5215 62.7833 76.4736 64.7423L75.9845 84.7598C75.9366 86.7189 77.2502 88.3092 79.2092 88.3571ZM82.3751 94.4623C82.3304 96.2907 80.8119 97.7368 78.9835 97.6921C77.1551 97.6474 75.7091 96.129 75.7537 94.3005C75.7984 92.4721 77.3169 91.0261 79.1453 91.0708C80.9737 91.1154 82.4197 92.6339 82.3751 94.4623Z" fill="#026CB6"/>
<defs>
<filter id="filter0_d" x="40.7993" y="43.0947" width="78.4016" height="77.8106" filterUnits="userSpaceOnUse" color-interpolation-filters="sRGB">
<feFlood flood-opacity="0" result="BackgroundImageFix"/>
<feColorMatrix in="SourceAlpha" type="matrix" values="0 0 0 0 0 0 0 0 0 0 0 0 0 0 0 0 0 0 127 0"/>
<feOffset dy="2"/>
<feGaussianBlur stdDeviation="1.5"/>
<feColorMatrix type="matrix" values="0 0 0 0 0 0 0 0 0 0 0 0 0 0 0 0 0 0 0.2 0"/>
<feBlend mode="normal" in2="BackgroundImageFix" result="effect1_dropShadow"/>
<feBlend mode="normal" in="SourceGraphic" in2="effect1_dropShadow" result="shape"/>
</filter>
</defs>
</svg>
