<svg width="32" height="24" viewBox="0 0 32 24" fill="none" xmlns="http://www.w3.org/2000/svg">
<path fill-rule="evenodd" clip-rule="evenodd" d="M5.3335 12C5.3335 6.10666 10.1068 1.33333 16.0002 1.33333C21.8882 1.33333 26.6668 6.10666 26.6668 12C26.6668 17.8889 21.8882 22.6667 16.0002 22.6667C10.1068 22.6667 5.3335 17.8889 5.3335 12ZM25.7779 12C25.7779 6.60888 21.3913 2.22222 16.0002 2.22222C10.609 2.22222 6.22238 6.60888 6.22238 12C6.22238 17.3911 10.609 21.7778 16.0002 21.7778C21.3913 21.7778 25.7779 17.3911 25.7779 12Z" fill="white"/>
<path d="M16.0002 1.13333C9.99637 1.13333 5.1335 5.9962 5.1335 12H5.5335C5.5335 6.21712 10.2173 1.53333 16.0002 1.53333V1.13333ZM26.8668 12C26.8668 5.99614 21.9986 1.13333 16.0002 1.13333V1.53333C21.7778 1.53333 26.4668 6.21718 26.4668 12H26.8668ZM16.0002 22.8667C21.9986 22.8667 26.8668 17.9993 26.8668 12H26.4668C26.4668 17.7784 21.7777 22.4667 16.0002 22.4667V22.8667ZM5.1335 12C5.1335 17.9993 9.99632 22.8667 16.0002 22.8667V22.4667C10.2173 22.4667 5.5335 17.7785 5.5335 12H5.1335ZM16.0002 2.42222C21.2808 2.42222 25.5779 6.71934 25.5779 12H25.9779C25.9779 6.49843 21.5017 2.02222 16.0002 2.02222V2.42222ZM6.42238 12C6.42238 6.71934 10.7195 2.42222 16.0002 2.42222V2.02222C10.4986 2.02222 6.02238 6.49843 6.02238 12H6.42238ZM16.0002 21.5778C10.7195 21.5778 6.42238 17.2806 6.42238 12H6.02238C6.02238 17.5016 10.4986 21.9778 16.0002 21.9778V21.5778ZM25.5779 12C25.5779 17.2806 21.2808 21.5778 16.0002 21.5778V21.9778C21.5017 21.9778 25.9779 17.5016 25.9779 12H25.5779Z" fill="white"/>
<path fill-rule="evenodd" clip-rule="evenodd" d="M10.6665 11.9418L11.3758 11.2144L14.4999 14.4221L21.1095 7.63542L21.818 8.36285L14.4999 15.8778L10.6665 11.9418Z" fill="white" stroke="white" stroke-width="0.2"/>
</svg>
